HIERARCHY
ROOT Hips
{
  OFFSET 0 0.240689 0
  CHANNELS 6 Xposition Yposition Zposition Zrotation Xrotation Yrotation
  JOINT Bip01_Spine0
  {
    OFFSET 0 -24.7459 49.7988
    CHANNELS 6 Xposition Yposition Zposition Zrotation Xrotation Yrotation
    JOINT Bip01_Pelvis
    {
      OFFSET 0 0 0
      CHANNELS 6 Xposition Yposition Zposition Zrotation Xrotation Yrotation
      JOINT Bip01_Spine0_Tail
      {
        OFFSET -6.47486 -3.86022 0
        CHANNELS 6 Xposition Yposition Zposition Zrotation Xrotation Yrotation
        JOINT Bip01_Spine0_Tail1
        {
          OFFSET 10.3837 -0.00825882 0
          CHANNELS 6 Xposition Yposition Zposition Zrotation Xrotation Yrotation
          JOINT Bip01_Spine0_Tail2
          {
            OFFSET 10.3837 -0.00826263 0
            CHANNELS 6 Xposition Yposition Zposition Zrotation Xrotation Yrotation
            JOINT Bip01_Spine0_Tail3
            {
              OFFSET 10.3837 -0.00825882 0
              CHANNELS 6 Xposition Yposition Zposition Zrotation Xrotation Yrotation
              JOINT Bip01_Spine0_Tail4
              {
                OFFSET 10.3837 -0.00826263 0
                CHANNELS 6 Xposition Yposition Zposition Zrotation Xrotation Yrotation
                End Site
                {
                  OFFSET 0 0 0
                }
              }
            }
          }
        }
      }
      JOINT Bip01_R_Thigh
      {
        OFFSET 0 -1.52588e-005 -8.75617
        CHANNELS 6 Xposition Yposition Zposition Zrotation Xrotation Yrotation
        JOINT Bip01_R_Calf
        {
          OFFSET 19.7638 0 0
          CHANNELS 6 Xposition Yposition Zposition Zrotation Xrotation Yrotation
          JOINT Bip01_R_Foot
          {
            OFFSET 18.6534 0 0
            CHANNELS 6 Xposition Yposition Zposition Zrotation Xrotation Yrotation
            JOINT Bip01_R_Toe0
            {
              OFFSET 5.09145 13.9567 0
              CHANNELS 6 Xposition Yposition Zposition Zrotation Xrotation Yrotation
              JOINT Bip01_R_Toe01
              {
                OFFSET 4.28803 0 0
                CHANNELS 6 Xposition Yposition Zposition Zrotation Xrotation Yrotation
                JOINT Bip01_R_Toe02
                {
                  OFFSET 3.85801 0 0
                  CHANNELS 6 Xposition Yposition Zposition Zrotation Xrotation Yrotation
                  End Site
                  {
                    OFFSET 0 0 0
                  }
                }
              }
            }
          }
        }
      }
      JOINT Bip01_L_Thigh
      {
        OFFSET 0 1.52588e-005 8.75617
        CHANNELS 6 Xposition Yposition Zposition Zrotation Xrotation Yrotation
        JOINT Bip01_L_Calf
        {
          OFFSET 19.7638 0 0
          CHANNELS 6 Xposition Yposition Zposition Zrotation Xrotation Yrotation
          JOINT Bip01_L_Foot
          {
            OFFSET 18.6534 0 0
            CHANNELS 6 Xposition Yposition Zposition Zrotation Xrotation Yrotation
            JOINT Bip01_L_Toe0
            {
              OFFSET 5.09144 13.9567 0
              CHANNELS 6 Xposition Yposition Zposition Zrotation Xrotation Yrotation
              JOINT Bip01_L_Toe01
              {
                OFFSET 4.28802 0 0
                CHANNELS 6 Xposition Yposition Zposition Zrotation Xrotation Yrotation
                JOINT Bip01_L_Toe02
                {
                  OFFSET 3.85801 0 0
                  CHANNELS 6 Xposition Yposition Zposition Zrotation Xrotation Yrotation
                  End Site
                  {
                    OFFSET 0 0 0
                  }
                }
              }
            }
          }
        }
      }
      JOINT Bip01_Spine
      {
        OFFSET 9.14835 -0.00640869 -1.1e-005
        CHANNELS 6 Xposition Yposition Zposition Zrotation Xrotation Yrotation
        JOINT Bip01_Spine1
        {
          OFFSET 8.04366 -0.00638199 0
          CHANNELS 6 Xposition Yposition Zposition Zrotation Xrotation Yrotation
          JOINT Bip01_Spine2
          {
            OFFSET 8.04367 -0.00639343 0
            CHANNELS 6 Xposition Yposition Zposition Zrotation Xrotation Yrotation
            JOINT Bip01_Spine3
            {
              OFFSET 8.04304 -0.00831222 0
              CHANNELS 6 Xposition Yposition Zposition Zrotation Xrotation Yrotation
              JOINT Bip01_Neck
              {
                OFFSET 10.6685 1.06813 0
                CHANNELS 6 Xposition Yposition Zposition Zrotation Xrotation Yrotation
                JOINT Bip01_R_Clavicle
                {
                  OFFSET -3.21661 -4.89635 -9.04802
                  CHANNELS 6 Xposition Yposition Zposition Zrotation Xrotation Yrotation
                  JOINT Bip01_R_UpperArm
                  {
                    OFFSET 19.0492 0 0
                    CHANNELS 6 Xposition Yposition Zposition Zrotation Xrotation Yrotation
                    JOINT Bip01_R_Forearm
                    {
                      OFFSET 10.3706 0 0
                      CHANNELS 6 Xposition Yposition Zposition Zrotation Xrotation Yrotation
                      JOINT Bip01_R_Hand
                      {
                        OFFSET 22.8632 0 0
                        CHANNELS 6 Xposition Yposition Zposition Zrotation Xrotation Yrotation
                        JOINT Bip01_R_Finger0
                        {
                          OFFSET 6.48259 0.103651 0.504496
                          CHANNELS 6 Xposition Yposition Zposition Zrotation Xrotation Yrotation
                          JOINT Bip01_R_Finger01
                          {
                            OFFSET 3.66847 0 0
                            CHANNELS 6 Xposition Yposition Zposition Zrotation Xrotation Yrotation
                            End Site
                            {
                              OFFSET 0 0 0
                            }
                          }
                        }
                      }
                    }
                  }
                }
                JOINT Bip01_L_Clavicle
                {
                  OFFSET -3.21661 -4.89641 9.04797
                  CHANNELS 6 Xposition Yposition Zposition Zrotation Xrotation Yrotation
                  JOINT Bip01_L_UpperArm
                  {
                    OFFSET 19.0492 0 0
                    CHANNELS 6 Xposition Yposition Zposition Zrotation Xrotation Yrotation
                    JOINT Bip01_L_Forearm
                    {
                      OFFSET 10.3706 0 0
                      CHANNELS 6 Xposition Yposition Zposition Zrotation Xrotation Yrotation
                      JOINT Bip01_L_Hand
                      {
                        OFFSET 22.8631 0 0
                        CHANNELS 6 Xposition Yposition Zposition Zrotation Xrotation Yrotation
                        JOINT Bip01_L_Finger0
                        {
                          OFFSET 6.48257 0.103655 -0.504492
                          CHANNELS 6 Xposition Yposition Zposition Zrotation Xrotation Yrotation
                          JOINT Bip01_L_Finger01
                          {
                            OFFSET 3.66844 0 0
                            CHANNELS 6 Xposition Yposition Zposition Zrotation Xrotation Yrotation
                            End Site
                            {
                              OFFSET 0 0 0
                            }
                          }
                        }
                      }
                    }
                  }
                }
                JOINT Bip01_Neck1
                {
                  OFFSET 7.52459 -0.00656509 0
                  CHANNELS 6 Xposition Yposition Zposition Zrotation Xrotation Yrotation
                  JOINT Bip01_Neck2
                  {
                    OFFSET 8.4783 -0.00588226 0
                    CHANNELS 6 Xposition Yposition Zposition Zrotation Xrotation Yrotation
                    JOINT Bip01_Head
                    {
                      OFFSET 8.41606 0 0
                      CHANNELS 6 Xposition Yposition Zposition Zrotation Xrotation Yrotation
                      JOINT EyesBlue
                      {
                        OFFSET 0 0 0
                        CHANNELS 6 Xposition Yposition Zposition Zrotation Xrotation Yrotation
                        JOINT EyesBlue_2
                        {
                          OFFSET 0 -0.500007 0
                          CHANNELS 6 Xposition Yposition Zposition Zrotation Xrotation Yrotation
                          End Site
                          {
                            OFFSET 0 0 0
                          }
                        }
                      }
                      JOINT Bip01_Head2_Eyeleds
                      {
                        OFFSET 6.52751 7.61746 2.2e-005
                        CHANNELS 6 Xposition Yposition Zposition Zrotation Xrotation Yrotation
                        End Site
                        {
                          OFFSET 0 0 0
                        }
                      }
                      JOINT Bip01_Head_Muzzle
                      {
                        OFFSET 2.88628 13.9448 3.88994
                        CHANNELS 6 Xposition Yposition Zposition Zrotation Xrotation Yrotation
                        End Site
                        {
                          OFFSET 0 0 0
                        }
                      }
                      JOINT Bip01_Head1_Jaw
                      {
                        OFFSET 0.271065 1.32405 0
                        CHANNELS 6 Xposition Yposition Zposition Zrotation Xrotation Yrotation
                        JOINT _Bip01_Head11_TungeControler
                        {
                          OFFSET 4.61616 5.82872 0
                          CHANNELS 6 Xposition Yposition Zposition Zrotation Xrotation Yrotation
                          JOINT _Bip01_Ponytail3_tunge
                          {
                            OFFSET 5.17785 2.98805 0
                            CHANNELS 6 Xposition Yposition Zposition Zrotation Xrotation Yrotation
                            JOINT Bip01_Ponytail31
                            {
                              OFFSET 5.57569 0 0
                              CHANNELS 6 Xposition Yposition Zposition Zrotation Xrotation Yrotation
                              JOINT Bip01_Ponytail32
                              {
                                OFFSET 2.93165 0 0
                                CHANNELS 6 Xposition Yposition Zposition Zrotation Xrotation Yrotation
                                JOINT Bip01_Ponytail3Nub
                                {
                                  OFFSET 3.30155 0 0
                                  CHANNELS 6 Xposition Yposition Zposition Zrotation Xrotation Yrotation
                                  End Site
                                  {
                                    OFFSET 0 0 0
                                  }
                                }
                              }
                            }
                          }
                        }
                        JOINT Bip01_Head_JawNub
                        {
                          OFFSET 15.5776 -0.000389099 0
                          CHANNELS 6 Xposition Yposition Zposition Zrotation Xrotation Yrotation
                          End Site
                          {
                            OFFSET 0 0 0
                          }
                        }
                      }
                      JOINT Bip01_Ponytail2
                      {
                        OFFSET 9.40334 1.03973 -6.51764
                        CHANNELS 6 Xposition Yposition Zposition Zrotation Xrotation Yrotation
                        JOINT Bip01_Ponytail21
                        {
                          OFFSET 2.77018 -0.00640106 1.33514e-005
                          CHANNELS 6 Xposition Yposition Zposition Zrotation Xrotation Yrotation
                          End Site
                          {
                            OFFSET 0 0 0
                          }
                        }
                      }
                      JOINT Bip01_Ponytail1
                      {
                        OFFSET 9.40368 1.03969 6.51768
                        CHANNELS 6 Xposition Yposition Zposition Zrotation Xrotation Yrotation
                        JOINT Bip01_Ponytail11
                        {
                          OFFSET 2.77018 -0.00640487 0
                          CHANNELS 6 Xposition Yposition Zposition Zrotation Xrotation Yrotation
                          End Site
                          {
                            OFFSET 0 0 0
                          }
                        }
                      }
                    }
                  }
                }
              }
            }
          }
        }
      }
    }
  }
}
MOTION
Frames:	4
Frame Time:	0.0333333
0 0 0 -0 -90 -0 -21.851 -28.7019 10.0855 -61.1959 -75.7019 -80.9658 0 0 0 -90 -3.2005e-005 -80.9994 -6.3955 -3.8598 -1.01357 143.183 -1.35926 -21.0586 10.3809 -0.007484 0.00267 -17.5438 -18.1505 0.203073 10.3866 -0.006038 -0.004292 27.5954 32.5337 19.3625 10.3872 -0.005786 0.004371 33.8468 -31.4447 10.0936 10.3879 -0.006749 7.39984e-005 34.1978 -0.0112663 -14.999 1.3e-005 -1.3e-005 -8.75617 -93.9091 -12.3303 -156.457 19.7638 -2.84217e-014 -1e-006 -52.827 -0.00134456 -0.00397423 18.6534 -2.4869e-014 3e-006 -0.165061 -10.3628 19.3632 5.09143 13.9567 8.05963e-008 70.3985 -2.7931 -4.14799 4.288 1e-006 1e-006 20.0009 -2.34418e-005 -1.05149e-005 3.85799 0 -7.10543e-015 -45 -5.33107e-006 8.3154e-006 -9e-006 9e-006 8.75617 -114.541 3.10427 -167.621 19.7638 1.77636e-015 2.66454e-015 -70.8275 -0.000669701 -0.00389303 18.6534 -1e-006 6.21725e-015 -17.3873 -7.65713 4.45673 5.09143 13.9567 -1.76218e-008 70.1604 -8.29943 -17.1768 4.288 7.10543e-015 3.55271e-015 20.0003 -2.09215e-006 -1.39327e-006 3.85799 -1e-006 -3e-006 -45 -1.17301e-005 -8.04886e-006 9.0357 -0.006322 1.43121 0.0455264 -0.00694797 -8.99996 8.04461 -0.00633 -5.79092e-013 8.5 4.85878e-006 -1.85943e-005 8.04434 -0.006286 -2.00003e-005 6.49179 0.563824 -6.81078 8.04535 -0.008087 0.000143997 12.3023 -0.595604 -3.85922 10.6709 1.06821 0.000163583 9.83784 0.00125 0.00106782 -4.88321 -3.23986 -9.0479 -9.89596 -88.5831 -51.5124 19.0492 -1e-006 -5e-006 56.5699 19.8307 -90.2402 10.3706 5.68434e-014 -1e-006 -107.203 3.87868e-005 -0.000164381 22.8631 -5e-006 -3e-006 38.1634 21.9782 -38.4907 6.48256 0.103657 0.504496 -18.2002 -13.6575 -7.39831 3.66843 -3.80141e-013 3e-006 40.107 9.46489e-006 1.30006e-005 -4.883 -3.23972 9.04777 170.119 74.9168 -142 19.0492 6.73905e-014 1e-006 85.5209 -22.4053 84.9008 10.3706 0 -4.44089e-016 -59.7016 -0.000129292 -0.000419446 22.8631 -3.90799e-014 -1e-006 -7.36616 -6.21421 9.39479 6.48256 0.10365 -0.504497 -18.1999 13.6582 7.40055 3.66843 -1e-006 -1.35003e-013 39.4727 8.58873e-006 -1.1444e-005 7.52607 -0.006639 2.80009e-005 -0.464689 0.101673 -7.69256 8.4743 -0.006572 3.00016e-005 -5.99936 -0.007737 -10.5 8.41604 2.80664e-013 1e-006 -69.5385 3.02291 -2.00921 -1e-006 4e-006 -3e-006 -23.1098 1.37701e-015 90 -8.57205e-007 -0.5 1.91026e-006 -105.883 90 -164.117 0 0 0 -79.937 -1.52588e-005 -180 2.0685 15.2161 3.8903 -22.989 1.37021e-015 90 0 0 0 -85.3358 0.000106811 -180 0 0 0 -120.289 1.6768e-005 -8.70663e-006 0 0 0 133.74 1.72695e-005 8.44039e-006 0 0 0 1.83152 -3.35207e-007 2.93796e-007 0 0 0 -17.65 1.63886e-006 -2.68411e-006 0 0 0 -26.1943 2.43861e-007 -4.44713e-006 15.5776 -0.000392 -6.99993e-006 1.76556e-031 3.18055e-015 -3.18055e-015 9.40427 1.04082 -6.51497 20.1769 -62.9984 115.712 2.77264 -0.004953 0.002975 28.9718 -27.3049 44.7673 9.40468 1.04074 6.51499 20.0864 63.0876 -115.541 2.77262 -0.004961 -0.002922 28.9529 27.3411 -44.6466 
0 0 0 -0 -90 -0 -21.8516 -28.7019 10.0856 -61.1987 -75.7007 -80.9693 0 0 0 -90 -3.53517e-005 -80.9785 -6.39513 -3.8598 -1.01596 143.184 -1.37249 -21.0419 10.3809 -0.007484 0.00267 -17.5439 -18.1505 0.203577 10.3866 -0.006038 -0.004292 27.5945 32.5336 19.3634 10.3872 -0.005786 0.004371 33.8456 -31.4452 10.0926 10.3879 -0.006749 7.39984e-005 34.1969 -0.0107126 -14.9996 1.3e-005 -1.3e-005 -8.75617 -93.9066 -12.3092 -156.454 19.7638 -2.66454e-014 -1e-006 -52.8235 -0.00134481 -0.00397415 18.6534 -2.4869e-014 3e-006 -0.167257 -10.3625 19.363 5.09143 13.9567 8.05558e-008 70.3988 -2.79203 -4.1477 4.288 1e-006 1e-006 20.0009 -2.34415e-005 -1.05148e-005 3.85799 1.77636e-015 0 -45 -5.33129e-006 8.31501e-006 -9e-006 9e-006 8.75617 -114.54 3.12316 -167.61 19.7638 -8.88179e-016 8.88179e-016 -70.8247 -0.000669892 -0.00389299 18.6534 -1e-006 5.32907e-015 -17.3887 -7.65652 4.45554 5.09143 13.9567 -1.76233e-008 70.1605 -8.29789 -17.1761 4.288 0 4.44089e-016 20.0003 -2.09183e-006 -1.39301e-006 3.85799 -1e-006 -3e-006 -45 -1.17301e-005 -8.04959e-006 9.03514 -0.006322 1.43457 0.0455238 -0.0069646 -9.02089 8.04461 -0.00633 -5.82645e-013 8.5 4.859e-006 -1.85943e-005 8.04434 -0.006286 -2.00003e-005 6.49181 0.563845 -6.81037 8.04535 -0.008087 0.000143997 12.3023 -0.595584 -3.85905 10.6709 1.06821 0.000163583 9.83784 0.00125 0.00106782 -4.88321 -3.23986 -9.0479 -9.89645 -88.5829 -51.5132 19.0492 -1e-006 -5e-006 56.5708 19.8302 -90.2411 10.3706 7.28307e-014 -1e-006 -107.203 3.87871e-005 -0.000164381 22.8631 -5e-006 -3e-006 38.1642 21.9782 -38.492 6.48256 0.103657 0.504496 -18.2002 -13.6575 -7.39831 3.66843 -3.83693e-013 3e-006 40.107 9.46488e-006 1.30008e-005 -4.883 -3.23972 9.04777 170.119 74.9168 -142 19.0492 6.61693e-014 1e-006 85.522 -22.4074 84.9002 10.3706 1.77636e-015 4.44089e-015 -59.699 -0.000129311 -0.00041944 22.8631 -3.19744e-014 -1e-006 -7.36614 -6.21428 9.39552 6.48256 0.10365 -0.504497 -18.1999 13.6582 7.40055 3.66843 -1e-006 -1.29674e-013 39.4727 8.58896e-006 -1.1444e-005 7.52607 -0.006639 2.80009e-005 -0.464689 0.101676 -7.69297 8.4743 -0.006572 3.00016e-005 -5.99889 -0.00775349 -10.5005 8.41604 3.05533e-013 1e-006 -69.5402 3.02294 -2.08747 -1e-006 4e-006 -3e-006 -23.1098 1.37701e-015 90 -8.57192e-007 -0.5 1.91014e-006 -105.981 90 -164.019 0 0 0 -79.937 -1.52588e-005 -180 2.0685 15.2161 3.8903 -22.989 1.37021e-015 90 0 0 0 -85.3358 0.000106811 -180 0 0 0 -120.289 1.67466e-005 -8.70347e-006 0 0 0 133.74 1.72471e-005 8.42633e-006 0 0 0 1.83152 -3.36368e-007 2.93509e-007 0 0 0 -17.65 1.64525e-006 -2.68103e-006 0 0 0 -26.1943 2.43776e-007 -4.44569e-006 15.5776 -0.000392 -6.99993e-006 6.36111e-015 4.77083e-015 -3.18055e-015 9.40427 1.04082 -6.51497 20.1769 -62.9984 115.712 2.77264 -0.004953 0.002975 28.9718 -27.3049 44.7673 9.40468 1.04074 6.51499 20.0864 63.0876 -115.541 2.77262 -0.004961 -0.002922 28.9529 27.3411 -44.6466 
0 0 0 -0 -90 -0 -21.8521 -28.7019 10.0857 -61.201 -75.6997 -80.9722 0 0 0 -90 -3.18015e-005 -80.9561 -6.39472 -3.8598 -1.01853 143.185 -1.38663 -21.0239 10.3809 -0.007484 0.00267 -17.544 -18.1506 0.204014 10.3866 -0.006038 -0.004292 27.5936 32.5334 19.3643 10.3872 -0.005786 0.004371 33.8445 -31.4457 10.0918 10.3879 -0.006749 7.39984e-005 34.1962 -0.0101856 -15.0002 1.3e-005 -1.3e-005 -8.75617 -93.9044 -12.2866 -156.452 19.7638 -3.55271e-014 -1e-006 -52.8207 -0.001345 -0.00397408 18.6534 -1.77636e-014 3e-006 -0.16909 -10.3623 19.3628 5.09143 13.9567 8.05219e-008 70.3992 -2.79111 -4.14748 4.288 1e-006 1e-006 20.0009 -2.34413e-005 -1.05147e-005 3.85799 7.10543e-015 3.55271e-015 -45 -5.33147e-006 8.31467e-006 -9e-006 9e-006 8.75617 -114.539 3.14358 -167.599 19.7638 2.66454e-015 1.77636e-015 -70.8224 -0.00067005 -0.00389297 18.6534 -1e-006 7.99361e-015 -17.3897 -7.65604 4.4546 5.09143 13.9567 -1.76268e-008 70.1604 -8.29659 -17.1756 4.288 7.10543e-015 0 20.0003 -2.09155e-006 -1.39279e-006 3.85799 -1e-006 -3e-006 -45 -1.17301e-005 -8.05021e-006 9.03454 -0.006322 1.43817 0.0455211 -0.00698249 -9.0434 8.04461 -0.00633 -5.79092e-013 8.5 4.85923e-006 -1.85943e-005 8.04434 -0.006286 -2.00003e-005 6.49178 0.563873 -6.80996 8.04535 -0.008087 0.000143997 12.3023 -0.595571 -3.85891 10.6709 1.06821 0.000163583 9.83784 0.00125 0.00106782 -4.88321 -3.23986 -9.0479 -9.89645 -88.5827 -51.5135 19.0492 -1e-006 -5e-006 56.5716 19.8298 -90.2419 10.3706 5.15144e-014 -1e-006 -107.203 3.87874e-005 -0.000164381 22.8631 -5e-006 -3e-006 38.165 21.9783 -38.4931 6.48256 0.103657 0.504496 -18.2002 -13.6575 -7.39831 3.66843 -3.51719e-013 3e-006 40.107 9.46489e-006 1.3001e-005 -4.883 -3.23972 9.04777 170.119 74.9168 -142 19.0492 6.38378e-014 1e-006 85.523 -22.4091 84.8998 10.3706 -1.77636e-015 2.22045e-016 -59.6969 -0.000129326 -0.000419436 22.8631 -3.19744e-014 -1e-006 -7.36603 -6.21428 9.39606 6.48256 0.10365 -0.504497 -18.1999 13.6582 7.40055 3.66843 -1e-006 -1.45661e-013 39.4727 8.58916e-006 -1.1444e-005 7.52607 -0.006639 2.80009e-005 -0.46469 0.101679 -7.69332 8.4743 -0.006572 3.00016e-005 -5.99852 -0.00776353 -10.5008 8.41604 2.77112e-013 1e-006 -69.5416 3.02293 -2.16542 -1e-006 4e-006 -3e-006 -23.1098 1.37701e-015 90 -8.57179e-007 -0.5 1.91002e-006 -106.077 90 -163.923 0 0 0 -79.937 -1.52588e-005 -180 2.0685 15.2161 3.8903 -22.989 1.37021e-015 90 0 0 0 -85.3358 0.000106811 -180 0 0 0 -120.289 1.67254e-005 -8.70028e-006 0 0 0 133.74 1.72248e-005 8.41235e-006 0 0 0 1.83152 -3.37511e-007 2.93223e-007 0 0 0 -17.65 1.65155e-006 -2.67797e-006 0 0 0 -26.1943 2.43672e-007 -4.44423e-006 15.5776 -0.000392 -6.99993e-006 -9.54166e-015 -4.77083e-015 9.54166e-015 9.40427 1.04082 -6.51497 20.1769 -62.9984 115.712 2.77264 -0.004953 0.002975 28.9718 -27.3049 44.7673 9.40468 1.04074 6.51499 20.0864 63.0876 -115.541 2.77262 -0.004961 -0.002922 28.9529 27.3411 -44.6466 
0 0 0 -0 -90 -0 -21.8511 -28.7019 10.086 -61.1944 -75.7029 -80.9657 0 0 0 -90 -3.18794e-005 -80.9043 -6.3938 -3.8598 -1.02432 143.185 -1.41789 -20.9814 10.3809 -0.007484 0.00267 -17.5427 -18.1515 0.203161 10.3866 -0.006038 -0.004292 27.5949 32.5315 19.3632 10.3872 -0.005786 0.004371 33.8466 -31.4451 10.0936 10.3879 -0.006749 7.39984e-005 34.1986 -0.0105553 -14.9996 1.3e-005 -1.3e-005 -8.75617 -93.9092 -12.2347 -156.451 19.7638 -3.90799e-014 -1e-006 -52.83 -0.00134436 -0.0039743 18.6534 -2.13163e-014 3e-006 -0.164059 -10.3617 19.3642 5.09143 13.9567 8.0598e-008 70.3987 -2.79313 -4.14857 4.288 1e-006 1e-006 20.0009 -2.34416e-005 -1.05148e-005 3.85799 -1.77636e-015 -3.55271e-015 -45 -5.33109e-006 8.31515e-006 -9e-006 9e-006 8.75617 -114.545 3.1927 -167.581 19.7638 4.44089e-015 2.66454e-015 -70.8296 -0.000669559 -0.00389305 18.6534 -1e-006 4.44089e-015 -17.3847 -7.658 4.45842 5.09143 13.9567 -1.7674e-008 70.1584 -8.29949 -17.1782 4.288 3.55271e-015 4.88498e-015 20.0003 -2.09199e-006 -1.39323e-006 3.85799 -1e-006 -3e-006 -45 -1.17301e-005 -8.04905e-006 9.03322 -0.006322 1.44637 0.0455148 -0.00702366 -9.09523 8.04461 -0.00633 -5.79092e-013 8.5 4.85933e-006 -1.85943e-005 8.04434 -0.006286 -2.00003e-005 6.49167 0.563883 -6.80988 8.04535 -0.008087 0.000143997 12.3023 -0.595517 -3.85842 10.6709 1.06821 0.000163583 9.83784 0.00125 0.00106782 -4.88321 -3.23986 -9.0479 -9.90435 -88.5836 -51.521 19.0492 -1e-006 -5e-006 56.5722 19.8302 -90.2416 10.3706 5.86198e-014 -1e-006 -107.204 3.87882e-005 -0.000164381 22.8631 -5e-006 -3e-006 38.1639 21.9788 -38.4914 6.48256 0.103657 0.504496 -18.2002 -13.6575 -7.39831 3.66843 -3.37508e-013 3e-006 40.107 9.46514e-006 1.30005e-005 -4.883 -3.23972 9.04777 170.119 74.9168 -142 19.0492 6.12843e-014 1e-006 85.5201 -22.404 84.9023 10.3706 3.55272e-015 3.55272e-015 -59.7045 -0.000129271 -0.000419452 22.8631 -3.19744e-014 -1e-006 -7.36434 -6.21305 9.39313 6.48256 0.10365 -0.504497 -18.1999 13.6582 7.40055 3.66843 -1e-006 -1.5099e-013 39.4727 8.58867e-006 -1.14441e-005 7.52607 -0.006639 2.80009e-005 -0.464688 0.101673 -7.69261 8.4743 -0.006572 3.00016e-005 -6.00008 -0.0075973 -10.4985 8.41604 2.80664e-013 1e-006 -69.5385 3.02292 -2.23781 -1e-006 4e-006 -3e-006 -23.1098 1.37701e-015 90 -8.57176e-007 -0.5 1.90991e-006 -106.164 90 -163.836 0 0 0 -79.937 -1.52588e-005 -180 2.0685 15.2161 3.8903 -22.989 1.37021e-015 90 0 0 0 -85.3358 0.000106811 -180 0 0 0 -120.289 1.67057e-005 -8.6971e-006 0 0 0 133.74 1.72048e-005 8.39942e-006 0 0 0 1.83152 -3.38359e-007 2.92981e-007 0 0 0 -17.65 1.65615e-006 -2.67542e-006 0 0 0 -26.1943 2.43367e-007 -4.44272e-006 15.5776 -0.000392 -6.99993e-006 9.54166e-015 1.59028e-015 -3.18055e-015 9.40427 1.04082 -6.51497 20.1769 -62.9984 115.712 2.77264 -0.004953 0.002975 28.9718 -27.3049 44.7673 9.40468 1.04074 6.51499 20.0864 63.0876 -115.541 2.77262 -0.004961 -0.002922 28.9529 27.3411 -44.6466 
